<svg id="svg" version="1.1" xmlns="http://www.w3.org/2000/svg" xmlns:xlink="http://www.w3.org/1999/xlink" width="400" height="404.8780487804878" viewBox="0, 0, 400,404.8780487804878"><g id="svgg"><path id="path0" d="M186.600 8.410 C 180.627 8.806,173.236 9.565,171.200 9.993 C 170.210 10.200,167.690 10.656,165.600 11.004 C 161.674 11.660,157.242 12.564,154.800 13.208 C 154.030 13.411,151.510 14.044,149.200 14.615 C 126.294 20.272,100.931 32.900,80.205 48.964 C 40.390 79.825,12.438 129.072,7.193 177.600 C 6.967 179.690,6.598 182.544,6.373 183.942 C 5.731 187.937,5.471 207.044,5.962 214.200 C 6.928 228.289,8.824 240.027,12.166 252.600 C 25.258 301.854,58.116 344.832,102.138 370.280 C 118.824 379.925,137.817 387.418,155.600 391.372 C 157.250 391.739,159.230 392.211,160.000 392.421 C 162.826 393.194,172.999 394.721,178.600 395.213 C 181.020 395.426,184.449 395.780,186.221 396.000 C 190.418 396.521,208.041 396.516,212.179 395.993 C 213.951 395.768,217.380 395.411,219.800 395.199 C 229.855 394.316,240.527 392.270,252.200 388.987 C 318.628 370.305,371.002 315.830,387.173 248.600 C 387.861 245.740,388.598 242.680,388.811 241.800 C 389.755 237.897,391.099 228.786,391.613 222.800 C 391.831 220.270,392.187 216.982,392.404 215.493 C 392.921 211.957,392.915 192.761,392.396 188.621 C 392.174 186.849,391.817 183.510,391.603 181.200 C 387.244 134.195,362.549 86.846,325.990 55.395 C 303.446 36.002,275.370 21.112,249.014 14.573 C 246.806 14.026,244.370 13.411,243.600 13.208 C 241.310 12.604,236.852 11.688,232.800 10.989 C 230.710 10.628,228.100 10.161,227.000 9.950 C 218.954 8.410,198.414 7.627,186.600 8.410 M216.200 10.362 C 299.169 18.594,366.248 76.521,385.776 156.800 C 388.095 166.336,388.099 166.356,389.418 176.000 C 391.362 190.206,391.655 214.924,389.993 224.400 C 389.780 225.610,389.429 228.040,389.212 229.800 C 384.686 266.463,366.037 305.220,339.075 334.000 C 329.358 344.373,317.630 354.368,306.000 362.190 C 271.363 385.484,231.007 396.588,188.838 394.426 C 184.128 394.184,179.088 393.817,177.638 393.608 C 176.187 393.400,172.840 392.934,170.200 392.572 C 167.560 392.210,164.860 391.766,164.200 391.585 C 163.540 391.404,162.190 391.135,161.200 390.987 C 150.294 389.356,129.737 382.373,115.400 375.428 C 56.439 346.867,14.545 287.341,8.405 223.400 C 8.172 220.980,7.806 217.346,7.591 215.323 C 7.085 210.569,7.086 193.961,7.593 188.914 C 7.809 186.761,8.176 183.110,8.409 180.800 C 9.634 168.642,11.644 159.055,16.083 144.200 C 37.860 71.315,105.997 16.758,183.200 10.391 C 185.950 10.164,188.470 9.904,188.800 9.812 C 189.817 9.531,212.383 9.983,216.200 10.362 M193.286 27.658 C 186.843 27.805,181.263 28.051,180.886 28.205 C 180.509 28.359,178.220 28.733,175.800 29.036 C 168.657 29.932,160.023 31.607,154.400 33.189 C 117.594 43.541,83.964 65.444,63.302 92.520 C 62.696 93.314,60.876 95.701,59.257 97.824 C 41.672 120.889,28.612 154.251,25.993 182.800 C 25.781 185.110,25.426 188.449,25.204 190.221 C 24.982 191.992,24.800 197.383,24.800 202.200 C 24.800 207.017,24.982 212.408,25.204 214.179 C 25.426 215.951,25.781 219.290,25.993 221.600 C 27.380 236.720,32.317 255.671,38.810 270.800 C 73.737 352.180,162.700 394.539,247.600 370.214 C 310.605 352.162,358.212 299.528,370.624 234.200 C 372.616 223.713,373.241 216.075,373.241 202.200 C 373.241 190.156,373.020 186.366,371.807 177.600 C 367.562 146.916,353.759 115.057,334.824 92.239 C 310.118 62.467,281.163 43.641,244.000 33.189 C 240.912 32.320,234.786 30.974,230.200 30.157 C 223.166 28.904,218.840 28.419,206.600 27.509 C 205.720 27.444,199.729 27.510,193.286 27.658 M207.200 29.212 C 247.023 31.262,280.049 44.494,312.400 71.360 C 334.256 89.510,354.052 119.506,363.507 148.800 C 366.320 157.516,367.734 163.398,369.999 175.800 C 371.882 186.115,372.522 209.141,371.200 219.000 C 369.482 231.808,369.264 233.112,367.458 241.400 C 362.650 263.460,351.581 287.270,337.444 305.960 C 335.880 308.028,334.215 310.243,333.745 310.882 C 328.999 317.340,314.249 331.966,306.485 337.914 C 291.761 349.193,280.189 356.035,265.466 362.166 C 238.103 373.561,211.513 377.384,180.600 374.370 C 147.341 371.128,114.801 357.149,87.614 334.427 C 84.349 331.697,71.382 318.930,69.255 316.349 C 57.267 301.806,50.641 291.837,44.317 278.828 C 30.985 251.406,25.329 223.896,26.759 193.424 C 28.406 158.313,41.154 123.701,62.491 96.404 C 63.783 94.752,65.584 92.410,66.494 91.200 C 68.584 88.420,85.504 71.459,88.274 69.367 C 89.415 68.505,91.886 66.591,93.764 65.113 C 121.014 43.672,155.012 31.049,190.400 29.233 C 198.615 28.811,199.395 28.810,207.200 29.212 M306.871 135.759 C 303.101 136.327,303.122 136.280,303.328 143.500 C 303.420 146.745,303.713 162.270,303.977 178.000 C 304.508 209.492,304.373 208.097,306.943 208.744 C 309.524 209.394,321.734 209.327,324.000 208.650 L 325.800 208.113 326.080 195.557 C 326.235 188.650,326.567 174.810,326.818 164.800 C 327.070 154.790,327.214 144.269,327.138 141.419 L 327.000 136.239 323.600 135.736 C 319.532 135.135,310.939 135.147,306.871 135.759 M325.381 137.983 C 325.932 138.441,326.027 138.915,325.825 140.183 C 325.567 141.799,324.950 165.224,324.460 192.000 C 324.317 199.810,324.068 206.403,323.906 206.651 C 323.321 207.551,314.969 208.100,310.600 207.526 L 306.600 207.000 306.351 200.400 C 305.953 189.808,305.400 159.498,305.400 148.218 L 305.400 137.836 306.400 137.544 C 308.376 136.967,324.610 137.342,325.381 137.983 M98.000 164.000 C 77.595 165.903,65.472 182.312,66.551 206.569 C 67.598 230.134,80.471 243.000,103.000 243.000 C 126.651 243.000,139.581 229.079,139.596 203.600 C 139.611 177.041,123.422 161.630,98.000 164.000 M176.400 164.010 C 158.914 165.659,148.715 177.601,151.812 192.800 C 153.684 201.989,158.641 206.069,173.200 210.407 C 183.998 213.624,185.826 214.892,185.479 218.926 C 184.865 226.040,172.615 228.030,158.286 223.344 C 156.573 222.783,154.914 222.424,154.599 222.545 C 153.130 223.109,149.773 234.387,150.064 237.781 L 150.200 239.362 153.400 240.441 C 161.539 243.186,177.909 244.142,184.905 242.280 C 199.147 238.489,206.965 229.445,206.938 216.790 C 206.910 204.142,201.761 198.691,185.037 193.607 C 174.885 190.522,173.786 189.793,173.821 186.176 C 173.879 180.211,183.354 178.770,195.700 182.849 C 200.285 184.363,200.274 184.368,201.774 180.321 C 204.611 172.669,205.137 168.269,203.300 167.549 C 196.143 164.745,184.648 163.233,176.400 164.010 M222.000 165.065 C 220.969 165.164,219.986 165.519,219.700 165.895 C 219.063 166.734,219.000 205.791,219.624 213.000 C 221.246 231.725,229.184 240.511,246.591 242.851 C 251.321 243.486,268.165 243.080,272.200 242.232 C 281.494 240.281,285.429 239.067,286.015 237.971 C 286.720 236.655,286.518 166.576,285.808 165.865 C 284.574 164.631,266.038 164.406,264.590 165.608 C 264.080 166.032,264.000 170.013,264.000 195.025 C 264.000 217.734,263.893 224.020,263.500 224.265 C 262.403 224.951,252.612 224.918,250.214 224.221 C 245.951 222.982,242.932 219.137,241.890 213.621 C 241.640 212.299,241.412 202.148,241.326 188.539 C 241.192 167.347,241.131 165.657,240.491 165.384 C 239.715 165.055,224.790 164.796,222.000 165.065 M110.823 165.980 C 128.446 169.544,137.753 182.614,137.753 203.800 C 137.753 231.676,119.773 246.410,92.600 240.801 C 73.620 236.884,62.705 210.943,70.382 188.000 C 76.051 171.056,92.265 162.228,110.823 165.980 M190.800 165.968 C 194.330 166.559,199.846 167.925,201.511 168.621 L 202.876 169.191 202.610 171.296 C 202.340 173.423,200.270 180.515,199.604 181.593 C 199.300 182.085,198.974 182.100,197.522 181.685 C 188.692 179.161,188.530 179.134,183.065 179.270 C 175.172 179.465,172.000 181.416,172.000 186.075 C 172.000 190.755,173.971 192.168,185.000 195.400 C 199.804 199.737,203.701 203.355,205.272 214.222 C 207.605 230.356,194.059 241.789,172.600 241.797 C 164.740 241.800,163.732 241.669,156.503 239.700 C 150.842 238.158,150.675 237.475,153.723 228.400 C 155.192 224.029,154.994 224.121,159.800 225.580 C 176.631 230.690,190.903 225.194,186.423 215.326 C 185.133 212.487,183.073 211.478,172.200 208.362 C 158.028 204.300,153.200 199.142,153.200 188.062 C 153.200 171.514,168.882 162.299,190.800 165.968 M236.424 166.398 C 239.806 166.402,239.547 164.545,239.740 190.200 C 239.934 216.061,240.096 217.433,243.485 221.875 C 246.856 226.295,257.719 228.181,264.700 225.558 L 265.600 225.220 265.606 196.510 C 265.610 179.265,265.763 167.562,265.989 167.205 C 266.703 166.074,281.603 165.792,283.700 166.869 C 284.359 167.207,284.400 169.303,284.400 202.334 L 284.400 237.439 283.100 237.890 C 282.385 238.137,280.720 238.611,279.400 238.942 C 278.080 239.274,276.190 239.747,275.200 239.995 C 267.591 241.897,251.650 242.569,245.549 241.243 C 239.853 240.006,238.040 239.468,235.912 238.387 C 228.216 234.476,224.156 228.632,221.749 218.000 C 220.896 214.233,220.383 167.859,221.185 167.053 C 221.761 166.475,227.251 166.038,231.400 166.240 C 233.160 166.325,235.421 166.396,236.424 166.398 M97.553 180.532 C 89.683 183.456,86.223 193.310,87.543 209.043 C 88.897 225.186,99.325 232.663,110.968 225.840 C 120.142 220.464,121.866 193.276,113.628 183.893 C 110.661 180.514,102.304 178.766,97.553 180.532 M108.838 182.454 C 114.551 184.912,116.940 191.120,116.977 203.600 C 117.025 219.999,113.373 225.800,103.000 225.800 C 92.798 225.800,89.041 219.829,89.034 203.600 C 89.026 185.783,96.938 177.335,108.838 182.454 M305.842 218.738 C 303.561 219.121,303.189 220.683,303.156 230.000 C 303.130 237.272,303.549 240.750,304.544 241.535 C 306.859 243.359,325.752 242.731,326.665 240.800 C 327.978 238.023,327.765 221.187,326.395 219.494 C 325.644 218.566,310.240 218.000,305.842 218.738 M324.423 220.187 C 326.912 221.142,326.528 239.353,323.997 240.401 C 322.069 241.200,306.590 240.764,305.713 239.886 C 304.789 238.960,304.611 221.629,305.517 220.723 C 306.481 219.759,322.149 219.315,324.423 220.187 " stroke="none" fill="#d0d0d0" fill-rule="evenodd"></path><path id="path1" d="M0.000 202.400 L 0.000 404.800 200.000 404.800 L 400.000 404.800 400.000 202.400 L 400.000 0.000 200.000 0.000 L 0.000 0.000 0.000 202.400 M211.800 8.412 C 218.882 8.924,224.737 9.517,227.000 9.950 C 228.100 10.161,230.710 10.628,232.800 10.989 C 236.852 11.688,241.310 12.604,243.600 13.208 C 244.370 13.411,246.806 14.026,249.014 14.573 C 324.384 33.272,384.387 103.392,391.603 181.200 C 391.817 183.510,392.174 186.849,392.396 188.621 C 392.915 192.761,392.921 211.957,392.404 215.493 C 392.187 216.982,391.831 220.270,391.613 222.800 C 391.099 228.786,389.755 237.897,388.811 241.800 C 388.598 242.680,387.861 245.740,387.173 248.600 C 376.666 292.284,350.773 331.220,314.000 358.637 C 293.846 373.663,268.274 385.529,244.000 391.120 C 233.558 393.525,227.791 394.497,219.800 395.199 C 217.380 395.411,213.951 395.768,212.179 395.993 C 208.041 396.516,190.418 396.521,186.221 396.000 C 184.449 395.780,181.020 395.426,178.600 395.213 C 172.999 394.721,162.826 393.194,160.000 392.421 C 159.230 392.211,157.250 391.739,155.600 391.372 C 110.662 381.381,68.812 353.425,41.872 315.400 C 22.587 288.181,10.681 257.538,6.980 225.600 C 5.534 213.120,5.214 191.154,6.373 183.942 C 6.598 182.544,6.967 179.690,7.193 177.600 C 12.438 129.072,40.390 79.825,80.205 48.964 C 100.931 32.900,126.294 20.272,149.200 14.615 C 151.510 14.044,154.030 13.411,154.800 13.208 C 157.242 12.564,161.674 11.660,165.600 11.004 C 167.690 10.656,170.210 10.200,171.200 9.993 C 178.525 8.455,200.545 7.598,211.800 8.412 M188.800 9.812 C 188.470 9.904,185.950 10.164,183.200 10.391 C 141.009 13.871,103.700 30.042,71.000 59.026 C 45.931 81.245,25.360 113.149,16.083 144.200 C 11.644 159.055,9.634 168.642,8.409 180.800 C 8.176 183.110,7.809 186.761,7.593 188.914 C 7.086 193.961,7.085 210.569,7.591 215.323 C 7.806 217.346,8.172 220.980,8.405 223.400 C 14.545 287.341,56.439 346.867,115.400 375.428 C 129.737 382.373,150.294 389.356,161.200 390.987 C 162.190 391.135,163.540 391.404,164.200 391.585 C 164.860 391.766,167.560 392.210,170.200 392.572 C 172.840 392.934,176.187 393.400,177.638 393.608 C 205.177 397.560,241.369 392.588,271.098 380.768 C 288.924 373.681,307.749 362.299,322.570 349.647 C 359.128 318.440,383.731 274.195,389.212 229.800 C 389.429 228.040,389.780 225.610,389.993 224.400 C 391.655 214.924,391.362 190.206,389.418 176.000 C 388.099 166.356,388.095 166.336,385.776 156.800 C 366.248 76.521,299.169 18.594,216.200 10.362 C 212.383 9.983,189.817 9.531,188.800 9.812 M213.200 28.009 C 223.384 28.787,235.732 30.863,244.000 33.189 C 309.042 51.482,354.515 99.441,369.738 165.800 C 379.109 206.648,370.999 255.209,348.594 292.400 C 320.533 338.981,272.919 369.690,219.200 375.852 C 132.510 385.798,52.295 330.545,30.392 245.800 C 27.985 236.487,26.720 229.527,25.993 221.600 C 25.781 219.290,25.426 215.951,25.204 214.179 C 24.982 212.408,24.800 207.017,24.800 202.200 C 24.800 197.383,24.982 191.992,25.204 190.221 C 25.426 188.449,25.781 185.110,25.993 182.800 C 28.612 154.251,41.672 120.889,59.257 97.824 C 60.876 95.701,62.696 93.314,63.302 92.520 C 83.964 65.444,117.594 43.541,154.400 33.189 C 160.023 31.607,168.657 29.932,175.800 29.036 C 178.220 28.733,180.509 28.359,180.886 28.205 C 181.611 27.909,203.875 27.306,206.600 27.509 C 207.480 27.574,210.450 27.800,213.200 28.009 M190.400 29.233 C 155.012 31.049,121.014 43.672,93.764 65.113 C 91.886 66.591,89.415 68.505,88.274 69.367 C 85.504 71.459,68.584 88.420,66.494 91.200 C 65.584 92.410,63.783 94.752,62.491 96.404 C 31.918 135.516,19.932 187.521,30.043 237.200 C 33.001 251.736,37.441 264.686,44.317 278.828 C 50.641 291.837,57.267 301.806,69.255 316.349 C 71.382 318.930,84.349 331.697,87.614 334.427 C 126.890 367.254,174.934 380.805,225.800 373.403 C 229.435 372.874,232.045 372.381,237.200 371.249 C 245.558 369.415,256.510 365.895,265.466 362.166 C 280.189 356.035,291.761 349.193,306.485 337.914 C 314.249 331.966,328.999 317.340,333.745 310.882 C 334.215 310.243,335.880 308.028,337.444 305.960 C 354.668 283.190,366.331 254.957,370.147 226.800 C 370.490 224.270,370.964 220.760,371.200 219.000 C 372.522 209.141,371.882 186.115,369.999 175.800 C 367.734 163.398,366.320 157.516,363.507 148.800 C 354.052 119.506,334.256 89.510,312.400 71.360 C 280.049 44.494,247.023 31.262,207.200 29.212 C 199.395 28.810,198.615 28.811,190.400 29.233 M323.600 135.736 L 327.000 136.239 327.138 141.419 C 327.214 144.269,327.070 154.790,326.818 164.800 C 326.567 174.810,326.235 188.650,326.080 195.557 L 325.800 208.113 324.000 208.650 C 321.734 209.327,309.524 209.394,306.943 208.744 C 304.373 208.097,304.508 209.492,303.977 178.000 C 303.713 162.270,303.420 146.745,303.328 143.500 C 303.230 140.058,303.323 137.309,303.551 136.900 C 304.376 135.425,316.666 134.712,323.600 135.736 M306.400 137.544 L 305.400 137.836 305.400 148.218 C 305.400 159.498,305.953 189.808,306.351 200.400 L 306.600 207.000 310.600 207.526 C 314.969 208.100,323.321 207.551,323.906 206.651 C 324.068 206.403,324.317 199.810,324.460 192.000 C 324.950 165.224,325.567 141.799,325.825 140.183 C 326.255 137.489,325.988 137.411,316.040 137.326 C 311.288 137.285,306.950 137.384,306.400 137.544 M107.200 163.989 C 127.604 165.868,139.609 180.546,139.596 203.600 C 139.581 229.079,126.651 243.000,103.000 243.000 C 80.471 243.000,67.598 230.134,66.551 206.569 C 65.472 182.312,77.595 165.903,98.000 164.000 C 102.294 163.600,102.970 163.599,107.200 163.989 M192.200 164.666 C 195.700 165.281,201.072 166.676,203.300 167.549 C 205.137 168.269,204.611 172.669,201.774 180.321 C 200.274 184.368,200.285 184.363,195.700 182.849 C 183.354 178.770,173.879 180.211,173.821 186.176 C 173.786 189.793,174.885 190.522,185.037 193.607 C 201.761 198.691,206.910 204.142,206.938 216.790 C 206.965 229.445,199.147 238.489,184.905 242.280 C 177.909 244.142,161.539 243.186,153.400 240.441 L 150.200 239.362 150.064 237.781 C 149.773 234.387,153.130 223.109,154.599 222.545 C 154.914 222.424,156.573 222.783,158.286 223.344 C 172.615 228.030,184.865 226.040,185.479 218.926 C 185.826 214.892,183.998 213.624,173.200 210.407 C 158.641 206.069,153.684 201.989,151.812 192.800 C 147.739 172.810,166.030 160.068,192.200 164.666 M240.491 165.384 C 241.131 165.657,241.192 167.347,241.326 188.539 C 241.412 202.148,241.640 212.299,241.890 213.621 C 242.932 219.137,245.951 222.982,250.214 224.221 C 252.612 224.918,262.403 224.951,263.500 224.265 C 263.893 224.020,264.000 217.734,264.000 195.025 C 264.000 170.013,264.080 166.032,264.590 165.608 C 266.038 164.406,284.574 164.631,285.808 165.865 C 286.518 166.576,286.720 236.655,286.015 237.971 C 285.429 239.067,281.494 240.281,272.200 242.232 C 268.165 243.080,251.321 243.486,246.591 242.851 C 229.184 240.511,221.246 231.725,219.624 213.000 C 219.000 205.791,219.063 166.734,219.700 165.895 C 220.454 164.904,238.329 164.464,240.491 165.384 M96.200 165.695 C 77.967 169.202,68.222 182.398,68.205 203.600 C 68.185 228.361,82.126 242.866,105.000 241.882 C 128.131 240.888,141.517 221.372,137.278 194.826 C 133.980 174.172,116.515 161.787,96.200 165.695 M174.600 165.665 C 160.388 168.434,153.200 175.957,153.200 188.062 C 153.200 199.142,158.028 204.300,172.200 208.362 C 183.073 211.478,185.133 212.487,186.423 215.326 C 190.903 225.194,176.631 230.690,159.800 225.580 C 154.994 224.121,155.192 224.029,153.723 228.400 C 150.675 237.475,150.842 238.158,156.503 239.700 C 163.732 241.669,164.740 241.800,172.600 241.797 C 194.059 241.789,207.605 230.356,205.272 214.222 C 203.701 203.355,199.804 199.737,185.000 195.400 C 173.971 192.168,172.000 190.755,172.000 186.075 C 172.000 181.416,175.172 179.465,183.065 179.270 C 188.530 179.134,188.692 179.161,197.522 181.685 C 198.974 182.100,199.300 182.085,199.604 181.593 C 200.270 180.515,202.340 173.423,202.610 171.296 L 202.876 169.191 201.511 168.621 C 195.613 166.156,180.561 164.503,174.600 165.665 M224.918 166.342 C 223.113 166.484,221.434 166.804,221.185 167.053 C 220.383 167.859,220.896 214.233,221.749 218.000 C 224.156 228.632,228.216 234.476,235.912 238.387 C 238.040 239.468,239.853 240.006,245.549 241.243 C 251.650 242.569,267.591 241.897,275.200 239.995 C 276.190 239.747,278.080 239.274,279.400 238.942 C 280.720 238.611,282.385 238.137,283.100 237.890 L 284.400 237.439 284.400 202.334 C 284.400 169.303,284.359 167.207,283.700 166.869 C 281.603 165.792,266.703 166.074,265.989 167.205 C 265.763 167.562,265.610 179.265,265.606 196.510 L 265.600 225.220 264.700 225.558 C 257.719 228.181,246.856 226.295,243.485 221.875 C 240.096 217.433,239.934 216.061,239.740 190.200 C 239.547 164.545,239.806 166.402,236.424 166.398 C 235.421 166.396,233.160 166.325,231.400 166.240 C 229.640 166.154,226.723 166.200,224.918 166.342 M110.328 181.386 C 121.546 187.563,122.004 219.372,110.968 225.840 C 104.981 229.349,96.197 228.278,92.223 223.554 C 85.582 215.662,85.566 191.956,92.198 184.076 C 95.716 179.895,105.093 178.504,110.328 181.386 M99.659 181.606 C 92.460 183.121,89.028 190.224,89.034 203.600 C 89.041 219.829,92.798 225.800,103.000 225.800 C 113.373 225.800,117.025 219.999,116.977 203.600 C 116.926 186.563,111.124 179.193,99.659 181.606 M326.395 219.494 C 327.765 221.187,327.978 238.023,326.665 240.800 C 325.752 242.731,306.859 243.359,304.544 241.535 C 303.108 240.403,302.499 224.831,303.733 220.800 C 304.440 218.490,304.624 218.458,316.536 218.538 C 325.473 218.599,325.687 218.619,326.395 219.494 M308.317 219.933 C 304.885 220.345,305.000 219.988,305.000 230.206 C 305.000 241.665,303.987 240.563,314.674 240.723 C 324.546 240.871,324.881 240.785,325.536 237.947 C 326.646 233.141,325.868 220.742,324.423 220.187 C 323.484 219.827,310.859 219.628,308.317 219.933 " stroke="none" fill="#040404" fill-rule="evenodd"></path></g></svg>