<?xml version="1.0" encoding="utf-8"?>
<!DOCTYPE svg PUBLIC "-//W3C//DTD SVG 20010904//EN" "http://www.w3.org/TR/2001/REC-SVG-20010904/DTD/svg10.dtd">
<svg version="1.0" xmlns="http://www.w3.org/2000/svg" width="635px" height="644px" viewBox="0 0 635 644" preserveAspectRatio="xMidYMid meet">
 <g fill="#ffffff">
  <path d="M292 637.9 c-105.9 -10.1 -198.3 -71 -249.9 -164.6 -49.8 -90.4 -51.9 -202.2 -5.5 -294.6 35.5 -70.7 95 -125.6 166.9 -154.1 92 -36.4 195.7 -28 280 22.7 37.1 22.2 71.6 54.5 97.1 90.7 12.5 17.7 25.7 41.8 33.9 61.9 11.9 29.3 20.6 65.2 20.4 84.4 l-0.1 10.2 -1.4 -11.2 c-6.5 -53.8 -27.6 -107 -59.8 -150.8 -19.4 -26.4 -50 -55.6 -77.6 -74.2 -40.2 -27 -85.2 -44.1 -134.1 -51 -9.5 -1.3 -19.2 -1.7 -41.4 -1.8 -25.4 0 -30.9 0.3 -44.5 2.4 -69.2 10.5 -128.5 40.4 -177.5 89.5 -16.3 16.3 -25.9 27.8 -37.7 45.1 -28.4 41.4 -46.3 89.1 -52.9 140.5 -0.9 6.8 -1.4 20.6 -1.3 39.5 0 24.4 0.3 31.1 2.1 42.5 8.1 51.7 26.1 97 54.6 137.5 31.6 44.8 77.5 83.3 125.3 104.9 70.9 32.1 147.1 37.8 220 16.5 88.7 -25.9 162.1 -90.2 199.5 -174.5 13.1 -29.7 21.5 -60 25.4 -92 l1.3 -10.9 0.1 10.1 c0.2 18.3 -7.8 53.1 -18.6 80.4 -5.2 13.1 -16.7 36.4 -24.5 49.3 -20.7 34.2 -51 67.2 -84.3 91.6 -46.6 34.3 -101.3 54.8 -159.5 60.1 -13.2 1.1 -43.4 1.1 -56 -0.1z"/>
  <path d="M290.8 606 c-68 -7.7 -130.2 -38.3 -175.8 -86.4 -18.3 -19.4 -27.5 -31.5 -39.9 -52.4 -19.8 -33.4 -31.3 -66.2 -37.8 -108.2 -2.7 -17.8 -2.5 -60.5 0.5 -79.7 9.9 -63.5 36.8 -117 81.2 -161.4 13.8 -13.8 20.9 -20 34.4 -29.8 37.8 -27.4 80.7 -44.6 129.1 -51.8 16.9 -2.5 59.1 -2.5 76 0 72.2 10.7 132 43.4 179.4 98.2 34.3 39.8 56.9 89.5 65.6 144.5 2.6 16 3.1 55.8 1.1 73.4 -4.9 42.4 -17.7 80.3 -39.6 116.9 -17.4 29.1 -43.7 58.5 -71.5 79.8 -37.2 28.6 -82.5 47.7 -131.5 55.4 -12.1 2 -58.6 2.9 -71.2 1.5z m65.9 -3.4 c55.2 -7.5 105.4 -29.8 148.3 -66 7.3 -6.2 28.8 -28.6 36.1 -37.6 45.3 -56.2 68 -130.1 61.8 -201.5 -9.3 -109.1 -78.4 -202 -179.9 -241.8 -104.8 -41.1 -225.4 -15 -304 65.9 -32.5 33.5 -52.9 67 -67.5 110.9 -21 63.1 -18.2 135 7.6 197.1 21.7 52.1 57.1 95.3 104.5 127.6 34.9 23.7 82.9 41.3 124.9 45.7 5.5 0.6 11.8 1.3 14 1.5 8.1 0.8 43.3 -0.4 54.2 -1.8z"/>
  <path d="M145.6 386.4 c-12.2 -3 -24.3 -11.2 -31.5 -21.7 -7.3 -10.7 -11.8 -29.5 -10.7 -45.7 1.8 -29.8 14 -49.2 36.2 -57.6 11.4 -4.3 30.5 -4.9 42.9 -1.3 12.9 3.6 26.4 14.8 32.4 26.8 5.6 11 7.4 19.7 7.4 36.1 0 16.8 -1.8 25.5 -7.8 36.9 -6.9 13 -21.6 24 -36.3 27 -7.3 1.5 -25.5 1.2 -32.6 -0.5z m30.6 -1.8 c21.6 -4.2 35.3 -17.8 42 -41.6 0.7 -2.7 1.2 -10.6 1.3 -19.5 0 -17.1 -1.3 -23.4 -7.1 -35.3 -9.3 -19 -29.4 -29.4 -53.9 -27.9 -11.3 0.7 -18.2 2.8 -26.8 7.9 -11.2 6.7 -17.4 15.3 -22.7 31.6 -2.7 8.1 -2.8 9.4 -2.6 24.6 0.2 14.5 0.5 16.9 3 24 1.4 4.3 3.8 9.7 5.1 12 11.7 19.9 35.4 29.2 61.7 24.2z"/>
  <path d="M154.6 361.6 c-5.9 -2.2 -8.8 -4.7 -11.8 -10.1 -6.5 -11.9 -7.3 -38 -1.7 -52.9 2.3 -6.2 7.7 -11.7 13.4 -13.6 2.1 -0.7 6.7 -1 10.5 -0.8 9.4 0.5 14.3 3.8 18.7 12.8 5.5 11.1 6.6 30.6 2.6 45.9 -3.3 12.7 -9.8 18.7 -21.4 19.6 -4.3 0.4 -7.7 0.1 -10.3 -0.9z m17.1 -3.1 c7.4 -3.1 10.6 -8.3 13.2 -21.3 1.3 -6.4 1.5 -10.8 0.9 -19 -0.8 -12.7 -3 -20.2 -7.1 -24.9 -4.4 -5 -8.2 -6.7 -15.7 -6.7 -12.3 -0.1 -18.5 5.8 -21.6 20.5 -3.8 17.8 -0.9 39.1 6.4 47.3 4.6 5.1 16.5 7.2 23.9 4.1z"/>
  <path d="M259 386.9 c-2.4 -0.5 -7.8 -1.9 -11.8 -3.1 l-7.4 -2.2 0.5 -5.5 c0.3 -3.1 1.7 -9.4 3.3 -13.9 3.1 -9.5 1.7 -9.1 15.4 -5.2 9.8 2.8 24.7 3.1 30.5 0.6 6.3 -2.7 8.5 -5.3 8.5 -10 0 -6.1 -2.6 -8.1 -16 -12.2 -14.7 -4.5 -23 -7.9 -28.1 -11.6 -15.4 -11.1 -15.6 -39.6 -0.5 -53.6 9.3 -8.6 21.2 -12.3 39 -12.3 12 0 18 0.9 29.4 4.3 l7.2 2.1 0 3.8 c0 4.2 -4.2 18.4 -6.2 21.2 -1.2 1.6 -1.8 1.5 -9.1 -0.8 -9.9 -3.2 -19.9 -4.1 -26.5 -2.6 -6.6 1.6 -8.4 3.7 -8 9.2 0.4 5.5 2.6 6.8 18.6 11.6 14 4.2 19.9 7.1 25.7 12.4 5.4 5 8.2 10.9 9.5 19.7 3.2 22.7 -10.4 40.8 -35.6 47.2 -8.3 2.2 -29.5 2.6 -38.4 0.9z m39 -3.4 c14.2 -4.4 24.1 -11.9 29.2 -22.3 3 -6 3.3 -7.5 3.3 -15.7 0 -20.6 -6.9 -28.1 -33.1 -36.1 -18.3 -5.5 -21.4 -7.6 -21.4 -14.3 0 -5.4 1.7 -8.1 6.7 -10.3 4 -1.8 6 -2 15.2 -1.5 7.2 0.3 12.5 1.2 16.5 2.6 3.3 1.2 6.3 1.8 6.7 1.4 0.9 -1.1 4.6 -13 5.3 -17.5 l0.7 -3.6 -5.8 -1.7 c-27.3 -8 -53 -5 -66.4 7.8 -11.9 11.5 -13.4 34.7 -2.9 46.1 4.9 5.3 11.6 8.6 25.6 12.7 18.7 5.5 22.3 7.8 23.1 15.1 0.5 5.5 -2.1 9.9 -7.9 13 -3.8 2.1 -5.7 2.3 -16.8 2.3 -10 -0.1 -13.9 -0.5 -19.6 -2.3 -3.9 -1.2 -7.4 -2.2 -7.7 -2.2 -0.8 0 -5.3 14.3 -6 19.1 l-0.5 3.7 7.1 2.1 c4 1.2 9.9 2.5 13.2 3.1 8.7 1.3 28.9 0.5 35.5 -1.5z"/>
  <path d="M393.1 386.5 c-14.8 -2.8 -26.6 -11.1 -32.3 -22.7 -6 -12.3 -6.2 -13.5 -6.6 -60.4 l-0.3 -43.1 5.3 -0.6 c6.7 -0.8 19.9 -0.8 25.8 0.1 l4.5 0.7 0.6 40 c0.4 28.8 0.9 41.1 1.8 44 1.7 5.2 7.6 11 12.6 12.4 4.4 1.2 14.5 1.5 19.4 0.5 l3.1 -0.6 0 -48 c0 -44.6 0.1 -47.9 1.8 -48.6 2.2 -0.9 30.2 -0.9 32.5 0 1.6 0.7 1.7 4.3 1.5 60.5 l-0.3 59.8 -4 1.3 c-12.5 4.1 -22.2 5.5 -40 5.8 -12.4 0.2 -20.3 -0.1 -25.4 -1.1z m37.9 -1.5 c4.7 -0.6 13.3 -2.2 19.3 -3.6 l10.7 -2.6 -0.2 -58.1 -0.3 -58.2 -7.9 -0.7 c-4.3 -0.4 -11 -0.4 -15 0 l-7.1 0.7 -0.3 48.2 -0.2 48.2 -3.8 0.8 c-2 0.4 -7.3 0.7 -11.7 0.7 -14 0.1 -21.6 -4.6 -25.1 -15.6 -1.5 -4.5 -1.8 -11.4 -2.3 -43.8 l-0.6 -38.5 -7.1 -0.7 c-4 -0.4 -10.7 -0.4 -15 0 l-7.9 0.7 0 40 c0.1 34.4 0.3 41 1.8 46.8 5.5 22.1 18 32.9 40.7 35.6 10.8 1.2 22.3 1.3 32 0.1z"/>
  <path d="M497.8 386.3 c-6 -0.7 -6.3 -1.7 -6.3 -19.9 0 -12 0.3 -16.6 1.3 -17.6 1.9 -1.9 34.5 -1.9 36.4 0 1.7 1.7 1.9 34.5 0.2 36.2 -1.2 1.2 -24.8 2.2 -31.6 1.3z m28.1 -3.2 c1.8 -1.2 2 -2.2 2.1 -16.1 0.3 -17 0.4 -16.7 -9.1 -17.5 -4.3 -0.4 -11.5 -0.4 -15.9 0 -6.9 0.6 -8 1 -8.6 2.9 -0.4 1.1 -0.7 8.1 -0.7 15.5 0.1 11.8 0.3 13.6 1.9 14.8 2.1 1.5 28 1.8 30.3 0.4z"/>
  <path d="M496.4 331.4 c-1.9 -0.5 -2.2 -1.4 -2.7 -8.2 -0.3 -4.2 -0.7 -16.5 -0.7 -27.2 -0.1 -10.7 -0.3 -24.4 -0.5 -30.5 -0.2 -6 -0.4 -20.4 -0.5 -32 l-0.2 -21 5.4 -0.8 c6.6 -1.1 31.6 -0.4 32.7 0.9 1 1.1 -1.3 117.2 -2.4 118.2 -0.7 0.8 -27.8 1.3 -31.1 0.6z m28.5 -2.8 c0.5 -0.3 1.2 -20.4 1.6 -44.7 0.4 -24.3 1 -49.7 1.4 -56.5 0.6 -11.7 0.5 -12.3 -1.4 -12.8 -2.8 -0.8 -27.5 -0.7 -30.3 0 l-2.3 0.7 0.7 33.6 c0.3 18.5 0.9 44 1.3 56.6 l0.6 23 4 0.7 c4.3 0.7 23 0.2 24.4 -0.6z"/>
 </g>
</svg>